<svg width="51" height="50" viewBox="0 0 51 50" fill="none" xmlns="http://www.w3.org/2000/svg">
<path d="M47.249 0H3.04518C2.23143 0 1.57172 0.655859 1.57172 1.46484V45.6055C1.57172 46.4145 2.23143 47.0703 3.04518 47.0703H7.46556V48.5352C7.46556 49.3441 8.12528 50 8.93902 50C9.75276 50 10.4125 49.3441 10.4125 48.5352V47.0703H39.8817V48.5352C39.8817 49.3441 40.5414 50 41.3552 50C42.1689 50 42.8286 49.3441 42.8286 48.5352V47.0703H47.249C48.0627 47.0703 48.7225 46.4145 48.7225 45.6055V1.46484C48.7225 0.655859 48.0627 0 47.249 0ZM19.2532 38.2812V8.78906H31.0409V38.2812H19.2532ZM4.51864 38.2812V8.78906H16.3063V38.2812H4.51864ZM33.9879 8.78906H45.7755V38.2812H33.9879V8.78906ZM45.7755 2.92969V5.85938H4.51864V2.92969H45.7755ZM4.51864 44.1406V41.2109H45.7755V44.1406H4.51864Z" fill="#3D2800"/>
<path d="M23.6736 17.7734C22.8599 17.7734 22.2001 18.4293 22.2001 19.2383V25.0977C22.2001 25.9066 22.8599 26.5625 23.6736 26.5625C24.4873 26.5625 25.1471 25.9066 25.1471 25.0977V19.2383C25.1471 18.4293 24.4873 17.7734 23.6736 17.7734Z" fill="#3D2800"/>
<path d="M8.93904 17.7734C8.12529 17.7734 7.46558 18.4293 7.46558 19.2383V25.0977C7.46558 25.9066 8.12529 26.5625 8.93904 26.5625C9.75278 26.5625 10.4125 25.9066 10.4125 25.0977V19.2383C10.4125 18.4293 9.75278 17.7734 8.93904 17.7734Z" fill="#3D2800"/>
<path d="M38.4082 17.7734C37.5945 17.7734 36.9348 18.4293 36.9348 19.2383V25.0977C36.9348 25.9066 37.5945 26.5625 38.4082 26.5625C39.222 26.5625 39.8817 25.9066 39.8817 25.0977V19.2383C39.8817 18.4293 39.222 17.7734 38.4082 17.7734Z" fill="#3D2800"/>
</svg>
