<svg width="678" height="212" viewBox="0 0 678 212" fill="none" xmlns="http://www.w3.org/2000/svg">
<path d="M53.856 82.528C53.376 83.296 52.872 83.848 52.344 84.184C51.816 84.472 51.144 84.616 50.328 84.616C49.464 84.616 48.528 84.376 47.52 83.896C46.56 83.416 45.432 82.888 44.136 82.312C42.84 81.688 41.352 81.136 39.672 80.656C38.04 80.176 36.096 79.936 33.84 79.936C30.336 79.936 27.576 80.68 25.56 82.168C23.592 83.656 22.608 85.6 22.608 88C22.608 89.584 23.112 90.928 24.12 92.032C25.176 93.088 26.544 94.024 28.224 94.84C29.952 95.656 31.896 96.4 34.056 97.072C36.216 97.696 38.4 98.392 40.608 99.16C42.864 99.928 45.072 100.816 47.232 101.824C49.392 102.784 51.312 104.032 52.992 105.568C54.72 107.056 56.088 108.856 57.096 110.968C58.152 113.08 58.68 115.624 58.68 118.6C58.68 122.152 58.032 125.44 56.736 128.464C55.488 131.44 53.616 134.032 51.12 136.24C48.624 138.4 45.528 140.104 41.832 141.352C38.184 142.552 33.96 143.152 29.16 143.152C26.616 143.152 24.12 142.912 21.672 142.432C19.272 142 16.944 141.376 14.688 140.56C12.48 139.744 10.416 138.784 8.496 137.68C6.624 136.576 4.968 135.376 3.528 134.08L7.632 127.312C8.16 126.496 8.784 125.872 9.504 125.44C10.224 125.008 11.136 124.792 12.24 124.792C13.344 124.792 14.376 125.104 15.336 125.728C16.344 126.352 17.496 127.024 18.792 127.744C20.088 128.464 21.6 129.136 23.328 129.76C25.104 130.384 27.336 130.696 30.024 130.696C32.136 130.696 33.936 130.456 35.424 129.976C36.96 129.448 38.208 128.776 39.168 127.96C40.176 127.144 40.896 126.208 41.328 125.152C41.808 124.048 42.048 122.92 42.048 121.768C42.048 120.04 41.52 118.624 40.464 117.52C39.456 116.416 38.088 115.456 36.36 114.64C34.68 113.824 32.736 113.104 30.528 112.48C28.368 111.808 26.136 111.088 23.832 110.32C21.576 109.552 19.344 108.664 17.136 107.656C14.976 106.6 13.032 105.28 11.304 103.696C9.624 102.112 8.256 100.168 7.2 97.864C6.192 95.56 5.688 92.776 5.688 89.512C5.688 86.488 6.288 83.608 7.488 80.872C8.688 78.136 10.44 75.76 12.744 73.744C15.096 71.68 18 70.048 21.456 68.848C24.96 67.6 28.992 66.976 33.552 66.976C38.64 66.976 43.272 67.816 47.448 69.496C51.624 71.176 55.104 73.384 57.888 76.12L53.856 82.528ZM104.753 66.976C110.225 66.976 115.193 67.864 119.657 69.64C124.169 71.416 128.009 73.936 131.177 77.2C134.393 80.464 136.865 84.448 138.593 89.152C140.321 93.856 141.185 99.112 141.185 104.92C141.185 110.776 140.321 116.056 138.593 120.76C136.865 125.464 134.393 129.472 131.177 132.784C128.009 136.096 124.169 138.64 119.657 140.416C115.193 142.192 110.225 143.08 104.753 143.08C99.2333 143.08 94.2173 142.192 89.7053 140.416C85.1933 138.64 81.3293 136.096 78.1133 132.784C74.9453 129.472 72.4733 125.464 70.6973 120.76C68.9693 116.056 68.1053 110.776 68.1053 104.92C68.1053 99.112 68.9693 93.856 70.6973 89.152C72.4733 84.448 74.9453 80.464 78.1133 77.2C81.3293 73.936 85.1933 71.416 89.7053 69.64C94.2173 67.864 99.2333 66.976 104.753 66.976ZM104.753 129.4C110.897 129.4 115.433 127.336 118.361 123.208C121.337 119.08 122.825 113.032 122.825 105.064C122.825 97.096 121.337 91.024 118.361 86.848C115.433 82.672 110.897 80.584 104.753 80.584C98.5133 80.584 93.8813 82.696 90.8573 86.92C87.8813 91.096 86.3933 97.144 86.3933 105.064C86.3933 112.984 87.8813 119.032 90.8573 123.208C93.8813 127.336 98.5133 129.4 104.753 129.4ZM158.181 142V81.52L151.773 80.512C150.381 80.224 149.253 79.744 148.389 79.072C147.573 78.352 147.165 77.344 147.165 76.048V68.776H158.181V66.4C158.181 61.888 158.925 57.712 160.413 53.872C161.901 49.984 164.157 46.624 167.181 43.792C170.205 40.96 174.021 38.752 178.629 37.168C183.285 35.536 188.757 34.72 195.045 34.72C197.061 34.72 199.101 34.84 201.165 35.08C203.277 35.272 205.101 35.608 206.637 36.088L206.061 45.304C205.965 46.408 205.365 47.08 204.261 47.32C203.157 47.512 201.789 47.608 200.157 47.608C195.501 47.608 191.589 48.016 188.421 48.832C185.301 49.648 182.757 50.872 180.789 52.504C178.869 54.088 177.477 56.104 176.613 58.552C175.797 60.952 175.389 63.76 175.389 66.976V68.776H221.181V142H203.397V81.448H175.965V142H158.181ZM284.481 82.528C284.001 83.296 283.497 83.848 282.969 84.184C282.441 84.472 281.769 84.616 280.953 84.616C280.089 84.616 279.153 84.376 278.145 83.896C277.185 83.416 276.057 82.888 274.761 82.312C273.465 81.688 271.977 81.136 270.297 80.656C268.665 80.176 266.721 79.936 264.465 79.936C260.961 79.936 258.201 80.68 256.185 82.168C254.217 83.656 253.233 85.6 253.233 88C253.233 89.584 253.737 90.928 254.745 92.032C255.801 93.088 257.169 94.024 258.849 94.84C260.577 95.656 262.521 96.4 264.681 97.072C266.841 97.696 269.025 98.392 271.233 99.16C273.489 99.928 275.697 100.816 277.857 101.824C280.017 102.784 281.937 104.032 283.617 105.568C285.345 107.056 286.713 108.856 287.721 110.968C288.777 113.08 289.305 115.624 289.305 118.6C289.305 122.152 288.657 125.44 287.361 128.464C286.113 131.44 284.241 134.032 281.745 136.24C279.249 138.4 276.153 140.104 272.457 141.352C268.809 142.552 264.585 143.152 259.785 143.152C257.241 143.152 254.745 142.912 252.297 142.432C249.897 142 247.569 141.376 245.313 140.56C243.105 139.744 241.041 138.784 239.121 137.68C237.249 136.576 235.593 135.376 234.153 134.08L238.257 127.312C238.785 126.496 239.409 125.872 240.129 125.44C240.849 125.008 241.761 124.792 242.865 124.792C243.969 124.792 245.001 125.104 245.961 125.728C246.969 126.352 248.121 127.024 249.417 127.744C250.713 128.464 252.225 129.136 253.953 129.76C255.729 130.384 257.961 130.696 260.649 130.696C262.761 130.696 264.561 130.456 266.049 129.976C267.585 129.448 268.833 128.776 269.793 127.96C270.801 127.144 271.521 126.208 271.953 125.152C272.433 124.048 272.673 122.92 272.673 121.768C272.673 120.04 272.145 118.624 271.089 117.52C270.081 116.416 268.713 115.456 266.985 114.64C265.305 113.824 263.361 113.104 261.153 112.48C258.993 111.808 256.761 111.088 254.457 110.32C252.201 109.552 249.969 108.664 247.761 107.656C245.601 106.6 243.657 105.28 241.929 103.696C240.249 102.112 238.881 100.168 237.825 97.864C236.817 95.56 236.313 92.776 236.313 89.512C236.313 86.488 236.913 83.608 238.113 80.872C239.313 78.136 241.065 75.76 243.369 73.744C245.721 71.68 248.625 70.048 252.081 68.848C255.585 67.6 259.617 66.976 264.177 66.976C269.265 66.976 273.897 67.816 278.073 69.496C282.249 71.176 285.729 73.384 288.513 76.12L284.481 82.528ZM377.21 142H359.426V81.448H325.154V121.48C325.154 123.784 325.706 125.584 326.81 126.88C327.962 128.176 329.522 128.824 331.49 128.824C332.594 128.824 333.506 128.704 334.226 128.464C334.994 128.176 335.642 127.888 336.17 127.6C336.746 127.312 337.25 127.048 337.682 126.808C338.114 126.52 338.546 126.376 338.978 126.376C339.506 126.376 339.938 126.52 340.274 126.808C340.61 127.048 340.97 127.432 341.354 127.96L346.682 136.6C344.09 138.76 341.114 140.392 337.754 141.496C334.394 142.6 330.914 143.152 327.314 143.152C320.882 143.152 315.938 141.352 312.482 137.752C309.074 134.104 307.37 129.088 307.37 122.704V81.448H299.81C298.85 81.448 298.034 81.136 297.362 80.512C296.69 79.888 296.354 78.952 296.354 77.704V70.648L308.234 68.632L311.978 48.544C312.218 47.584 312.674 46.84 313.346 46.312C314.018 45.784 314.882 45.52 315.938 45.52H325.154V68.776H377.21V142ZM380.306 46.312C380.306 47.848 379.994 49.312 379.37 50.704C378.746 52.048 377.906 53.224 376.85 54.232C375.842 55.24 374.618 56.056 373.178 56.68C371.786 57.256 370.298 57.544 368.714 57.544C367.178 57.544 365.738 57.256 364.394 56.68C363.05 56.056 361.874 55.24 360.866 54.232C359.858 53.224 359.042 52.048 358.418 50.704C357.842 49.312 357.554 47.848 357.554 46.312C357.554 44.728 357.842 43.264 358.418 41.92C359.042 40.528 359.858 39.328 360.866 38.32C361.874 37.264 363.05 36.448 364.394 35.872C365.738 35.248 367.178 34.936 368.714 34.936C370.298 34.936 371.786 35.248 373.178 35.872C374.618 36.448 375.842 37.264 376.85 38.32C377.906 39.328 378.746 40.528 379.37 41.92C379.994 43.264 380.306 44.728 380.306 46.312ZM448.282 83.752C447.754 84.424 447.226 84.952 446.698 85.336C446.218 85.72 445.498 85.912 444.538 85.912C443.626 85.912 442.738 85.648 441.874 85.12C441.01 84.544 439.978 83.92 438.778 83.248C437.578 82.528 436.138 81.904 434.458 81.376C432.826 80.8 430.786 80.512 428.338 80.512C425.218 80.512 422.482 81.088 420.13 82.24C417.778 83.344 415.81 84.952 414.226 87.064C412.69 89.176 411.538 91.744 410.77 94.768C410.002 97.744 409.618 101.128 409.618 104.92C409.618 108.856 410.026 112.36 410.842 115.432C411.706 118.504 412.93 121.096 414.514 123.208C416.098 125.272 418.018 126.856 420.274 127.96C422.53 129.016 425.074 129.544 427.906 129.544C430.738 129.544 433.018 129.208 434.746 128.536C436.522 127.816 438.01 127.048 439.21 126.232C440.41 125.368 441.442 124.6 442.306 123.928C443.218 123.208 444.226 122.848 445.33 122.848C446.77 122.848 447.85 123.4 448.57 124.504L453.682 130.984C451.714 133.288 449.578 135.232 447.274 136.816C444.97 138.352 442.57 139.6 440.074 140.56C437.626 141.472 435.082 142.12 432.442 142.504C429.85 142.888 427.258 143.08 424.666 143.08C420.106 143.08 415.81 142.24 411.778 140.56C407.746 138.832 404.218 136.336 401.194 133.072C398.17 129.808 395.77 125.824 393.994 121.12C392.266 116.368 391.402 110.968 391.402 104.92C391.402 99.496 392.17 94.48 393.706 89.872C395.29 85.216 397.594 81.208 400.618 77.848C403.642 74.44 407.386 71.776 411.85 69.856C416.314 67.936 421.45 66.976 427.258 66.976C432.778 66.976 437.602 67.864 441.73 69.64C445.906 71.416 449.65 73.96 452.962 77.272L448.282 83.752ZM503.855 110.464C498.719 110.704 494.399 111.16 490.895 111.832C487.391 112.456 484.583 113.272 482.471 114.28C480.359 115.288 478.847 116.464 477.935 117.808C477.023 119.152 476.567 120.616 476.567 122.2C476.567 125.32 477.479 127.552 479.303 128.896C481.175 130.24 483.599 130.912 486.575 130.912C490.223 130.912 493.367 130.264 496.007 128.968C498.695 127.624 501.311 125.608 503.855 122.92V110.464ZM463.103 78.424C471.599 70.648 481.823 66.76 493.775 66.76C498.095 66.76 501.959 67.48 505.367 68.92C508.775 70.312 511.655 72.28 514.007 74.824C516.359 77.32 518.135 80.32 519.335 83.824C520.583 87.328 521.207 91.168 521.207 95.344V142H513.143C511.463 142 510.167 141.76 509.255 141.28C508.343 140.752 507.623 139.72 507.095 138.184L505.511 132.856C503.639 134.536 501.815 136.024 500.039 137.32C498.263 138.568 496.415 139.624 494.495 140.488C492.575 141.352 490.511 142 488.303 142.432C486.143 142.912 483.743 143.152 481.103 143.152C477.983 143.152 475.103 142.744 472.463 141.928C469.823 141.064 467.543 139.792 465.623 138.112C463.703 136.432 462.215 134.344 461.159 131.848C460.103 129.352 459.575 126.448 459.575 123.136C459.575 121.264 459.887 119.416 460.511 117.592C461.135 115.72 462.143 113.944 463.535 112.264C464.975 110.584 466.823 109 469.079 107.512C471.335 106.024 474.095 104.728 477.359 103.624C480.671 102.52 484.511 101.632 488.879 100.96C493.247 100.24 498.239 99.808 503.855 99.664V95.344C503.855 90.4 502.799 86.752 500.687 84.4C498.575 82 495.527 80.8 491.543 80.8C488.663 80.8 486.263 81.136 484.343 81.808C482.471 82.48 480.815 83.248 479.375 84.112C477.935 84.928 476.615 85.672 475.415 86.344C474.263 87.016 472.967 87.352 471.527 87.352C470.279 87.352 469.223 87.04 468.359 86.416C467.495 85.744 466.799 84.976 466.271 84.112L463.103 78.424ZM656.985 96.568C656.985 94.264 656.649 92.104 655.977 90.088C655.353 88.024 654.393 86.224 653.097 84.688C651.801 83.152 650.145 81.952 648.129 81.088C646.161 80.176 643.857 79.72 641.217 79.72C636.081 79.72 632.025 81.184 629.049 84.112C626.121 87.04 624.249 91.192 623.433 96.568H656.985ZM623.073 107.296C623.361 111.088 624.033 114.376 625.089 117.16C626.145 119.896 627.537 122.176 629.265 124C630.993 125.776 633.033 127.12 635.385 128.032C637.785 128.896 640.425 129.328 643.305 129.328C646.185 129.328 648.657 128.992 650.721 128.32C652.833 127.648 654.657 126.904 656.193 126.088C657.777 125.272 659.145 124.528 660.297 123.856C661.497 123.184 662.649 122.848 663.753 122.848C665.241 122.848 666.345 123.4 667.065 124.504L672.177 130.984C670.209 133.288 668.001 135.232 665.553 136.816C663.105 138.352 660.537 139.6 657.849 140.56C655.209 141.472 652.497 142.12 649.713 142.504C646.977 142.888 644.313 143.08 641.721 143.08C636.585 143.08 631.809 142.24 627.393 140.56C622.977 138.832 619.137 136.312 615.873 133C612.609 129.64 610.041 125.512 608.169 120.616C606.297 115.672 605.361 109.96 605.361 103.48C605.361 98.44 606.177 93.712 607.809 89.296C609.441 84.832 611.769 80.968 614.793 77.704C617.865 74.392 621.585 71.776 625.953 69.856C630.369 67.936 635.337 66.976 640.857 66.976C645.513 66.976 649.809 67.72 653.745 69.208C657.681 70.696 661.065 72.88 663.897 75.76C666.729 78.592 668.937 82.096 670.521 86.272C672.153 90.4 672.969 95.128 672.969 100.456C672.969 103.144 672.681 104.968 672.105 105.928C671.529 106.84 670.425 107.296 668.793 107.296H623.073Z" fill="black"/>
<path d="M555.956 35.008V142H538.172V35.008H555.956ZM591.675 35.008V142H573.891V35.008H591.675Z" fill="#A86E00"/>
<path d="M547 34V202" stroke="black" stroke-width="20" stroke-linecap="round" stroke-linejoin="round"/>
<path d="M582 34V182" stroke="black" stroke-width="20" stroke-linecap="round" stroke-linejoin="round"/>
<rect x="3" y="153" width="518" height="20" fill="#FD4E09"/>
</svg>
